#!OML:ASF H:\Punching\Project 1\Capture day 1\Session 1\female.ASF
:FULLY-SPECIFIED
:DEGREES
2615
root 1.7427 15.8389 6.41872 12.5994 -9.41264 -1.88195
lowerback -1.75598 0.694865 -1.40196
upperback -5.39636 0.915716 0.276368
thorax -4.60759 0.519659 1.04909
lowerneck -11.4631 -6.89077 0.117923
upperneck 33.249 -11.8367 4.15771
head 13.376 -4.70837 -0.146813
rclavicle 1.40764e-014 -4.57205e-015
rhumerus -7.85502 37.4286 -87.1835
rradius 86.7495
rwrist -3.8987
rhand -30.2205 8.73138
rfingers 7.12502
rthumb -3.53036 -21.2191
lclavicle 1.40764e-014 -4.57205e-015
lhumerus -35.2737 -41.9532 94.3249
lradius 118.212
lwrist -2.56803
lhand -32.5738 5.56287
lfingers 7.12502
lthumb -5.80275 35.4634
rfemur -31.3206 1.62478 10.2265
rtibia 26.5133
rfoot -3.17284 -18.1055
rtoes 2.16272
lfemur -11.061 -5.1037 -16.8011
ltibia 17.098
lfoot -17.0434 22.2206
ltoes 0.384839
2616
root 1.6955 15.8424 6.44976 12.5848 -9.74839 -1.81824
lowerback -1.80608 0.656304 -1.47056
upperback -5.42534 0.864045 0.295201
thorax -4.60964 0.497194 1.1086
lowerneck -11.347 -7.04853 -0.0599108
upperneck 33.2656 -12.0547 4.21835
head 13.3827 -4.82305 -0.123077
rclavicle 7.0817e-016 -1.74931e-014
rhumerus -7.49804 36.4488 -86.2292
rradius 86.8288
rwrist -2.52404
rhand -30.753 9.15555
rfingers 7.12502
rthumb -4.04463 -20.7858
lclavicle 7.0817e-016 -1.74931e-014
lhumerus -35.7981 -41.4169 94.0428
lradius 118.16
lwrist -2.23154
lhand -32.3336 5.44215
lfingers 7.12502
lthumb -5.5708 35.3489
rfemur -31.4805 2.40771 9.4395
rtibia 25.5179
rfoot -1.46381 -18.8201
rtoes 2.806
lfemur -10.3616 -5.04072 -16.7732
ltibia 16.1703
lfoot -16.6792 22.4608
ltoes 0.428049
2617
root 1.6459 15.8445 6.48207 12.5718 -10.0705 -1.75874
lowerback -1.8504 0.617044 -1.52446
upperback -5.46401 0.811381 0.311785
thorax -4.62468 0.473712 1.15742
lowerneck -11.2351 -7.19834 -0.230084
upperneck 33.2947 -12.262 4.27045
head 13.3948 -4.93268 -0.102683
rclavicle -2.31957e-014 -1.2921e-014
rhumerus -7.20511 35.4401 -85.3217
rradius 86.889
rwrist -1.16536
rhand -31.1564 9.4189
rfingers 7.12502
rthumb -4.43419 -20.5147
lclavicle -2.31957e-014 -1.2921e-014
lhumerus -36.3705 -40.886 93.7941
lradius 118.087
lwrist -1.87365
lhand -32.0716 5.24088
lfingers 7.12502
lthumb -5.31791 35.1542
rfemur -31.6492 3.27512 8.62673
rtibia 24.6012
rfoot 0.124234 -19.611
rtoes 3.32647
lfemur -9.64914 -4.98178 -16.7327
ltibia 15.2234
lfoot -16.2903 22.6874
ltoes 0.469343
2618
root 1.59418 15.849 6.51571 12.5578 -10.3812 -1.69724
lowerback -1.89119 0.574955 -1.58284
upperback -5.5063 0.755038 0.334012
thorax -4.64547 0.448815 1.21457
lowerneck -11.1276 -7.33858 -0.399213
upperneck 33.3255 -12.4528 4.31251
head 13.4076 -5.03598 -0.0840504
rclavicle 1.20467e-014 2.78299e-015
rhumerus -6.95612 34.4164 -84.4383
rradius 86.9319
rwrist 0.137151
rhand -31.4831 9.65066
rfingers 7.12502
rthumb -4.74959 -20.2761
lclavicle 1.20467e-014 2.78299e-015
lhumerus -36.9867 -40.3701 93.5903
lradius 117.99
lwrist -1.55847
lhand -31.8259 5.04213
lfingers 7.12502
lthumb -5.08062 34.9612
rfemur -31.8191 4.22385 7.78495
rtibia 23.7653
rfoot 1.56992 -20.4743
rtoes 3.70028
lfemur -8.92008 -4.92728 -16.6884
ltibia 14.2531
lfoot -15.8799 22.9033
ltoes 0.503308
2619
root 1.53985 15.8485 6.55041 12.5413 -10.6753 -1.62969
lowerback -1.93085 0.527392 -1.64721
upperback -5.54773 0.691488 0.360625
thorax -4.66577 0.420714 1.27976
lowerneck -11.031 -7.46829 -0.562949
upperneck 33.3539 -12.6256 4.34338
head 13.4202 -5.13199 -0.0683845
rclavicle 1.77384e-014 1.96797e-014
rhumerus -6.73139 33.3874 -83.5691
rradius 86.9562
rwrist 1.36618
rhand -31.7712 9.87216
rfingers 7.12502
rthumb -5.02786 -20.0482
lclavicle 1.77384e-014 1.96797e-014
lhumerus -37.6542 -39.8751 93.44
lradius 117.875
lwrist -1.34279
lhand -31.6224 4.8928
lfingers 7.12502
lthumb -4.88409 34.8165
rfemur -32.0073 5.21463 6.92
rtibia 23.0301
rfoot 2.88959 -21.3724
rtoes 3.89527
lfemur -8.1748 -4.8794 -16.6415
ltibia 13.2646
lfoot -15.4616 23.1059
ltoes 0.509949
2620
root 1.48304 15.8467 6.58631 12.5218 -10.9577 -1.55534
lowerback -1.99421 0.478626 -1.70843
upperback -5.5711 0.626747 0.381724
thorax -4.65329 0.391386 1.33777
lowerneck -10.9506 -7.5888 -0.712911
upperneck 33.3622 -12.7861 4.37393
head 13.4264 -5.22107 -0.0536905
rclavicle 2.09947e-015 9.93923e-016
rhumerus -6.49701 32.3438 -82.7053
rradius 86.9626
rwrist 2.51398
rhand -32.0586 10.0961
rfingers 7.12502
rthumb -5.30531 -19.8175
lclavicle 2.09947e-015 9.93923e-016
lhumerus -38.3331 -39.4261 93.3107
lradius 117.747
lwrist -1.22865
lhand -31.4685 4.82625
lfingers 7.12502
lthumb -4.73557 34.7533
rfemur -32.2102 6.20955 6.05428
rtibia 22.3985
rfoot 4.08025 -22.2715
rtoes 3.99466
lfemur -7.40287 -4.83705 -16.5943
ltibia 12.2373
lfoot -15.0273 23.3043
ltoes 0.474609
2621
root 1.42365 15.8432 6.62313 12.5 -11.2308 -1.472
lowerback -2.09425 0.429262 -1.76185
upperback -5.56682 0.561808 0.3909
thorax -4.59053 0.36069 1.37938
lowerneck -10.8905 -7.69901 -0.842426
upperneck 33.3397 -12.9344 4.40972
head 13.4224 -5.30208 -0.0389966
rclavicle -8.62306e-015 -1.25234e-014
rhumerus -6.23202 31.2888 -81.8443
rradius 86.9525
rwrist 3.55461
rhand -32.382 10.3224
rfingers 7.12502
rthumb -5.61752 -19.5832
lclavicle -8.62306e-015 -1.25234e-014
lhumerus -39.0016 -39.0259 93.1833
lradius 117.613
lwrist -1.20878
lhand -31.3591 4.85034
lfingers 7.12502
lthumb -4.62993 34.7797
rfemur -32.4481 7.15679 5.21278
rtibia 21.9107
rfoot 5.14025 -23.1164
rtoes 4.0373
lfemur -6.62821 -4.79795 -16.5484
ltibia 11.2168
lfoot -14.6062 23.4986
ltoes 0.393779
2622
root 1.36166 15.8382 6.66121 12.4703 -11.497 -1.37288
lowerback -2.15416 0.378231 -1.83793
upperback -5.58471 0.493811 0.404011
thorax -4.57392 0.330076 1.43728
lowerneck -10.8262 -7.79958 -0.969817
upperneck 33.3254 -13.064 4.42842
head 13.4189 -5.37669 -0.0282549
rclavicle 1.90105e-014 -1.78906e-014
rhumerus -6.03149 30.2674 -81.0079
rradius 86.9378
rwrist 4.50693
rhand -32.7639 10.4894
rfingers 7.12502
rthumb -5.98631 -19.406
lclavicle 1.90105e-014 -1.78906e-014
lhumerus -39.7577 -38.6393 93.1388
lradius 117.487
lwrist -1.2377
lhand -31.2519 4.9197
lfingers 7.12502
lthumb -4.52636 34.8513
rfemur -32.6993 7.99197 4.42348
rtibia 21.5424
rfoot 6.09031 -23.8508
rtoes 4.08388
lfemur -5.80629 -4.76698 -16.5116
ltibia 10.1266
lfoot -14.1646 23.6967
ltoes 0.274033
